<svg width="128" height="128" viewBox="0 0 128 128" fill="none" xmlns="http://www.w3.org/2000/svg">
<path d="M63.96 114.8C56.4933 114.8 50.8 112.7 46.88 108.5C42.96 104.207 41 98.0933 41 90.16V38.64C41 30.7067 42.96 24.64 46.88 20.44C50.8 16.1467 56.4933 14 63.96 14C71.4267 14 77.12 16.1467 81.04 20.44C84.96 24.64 86.92 30.7067 86.92 38.64V47.04H72.36V37.66C72.36 31.22 69.7 28 64.38 28C59.06 28 56.4 31.22 56.4 37.66V91.28C56.4 97.6267 59.06 100.8 64.38 100.8C69.7 100.8 72.36 97.6267 72.36 91.28V72.1H64.66V58.1H86.92V90.16C86.92 98.0933 84.96 104.207 81.04 108.5C77.12 112.7 71.4267 114.8 63.96 114.8Z" fill="#860202"/>
</svg>
